# xmcd CD database file
#
# Track frame offsets:
#	150
#	13698
#	23702
#	32440
#	45027
#	58197
#	79693
#	91790
#	109657
#	124341
#	142100
#	158506
#	172514
#	191225
#	204644
#	220244
#
# Disc length: 3164 seconds
#
# Revision: 0
# Processed by: cddbd v1.5.1PL0 Copyright (c) Steve Scherf et al.
# Submitted via: CDex 1.51
#
DISCID=c70c5a10
DTITLE=John Weston - Blues At Daybreak
DYEAR=1900
DGENRE=Blues
TTITLE0=Shopping For My Baby
TTITLE1=Goodbye Blues
TTITLE2=Blueberry Jam
TTITLE3=Don't Bring Me The Blues
TTITLE4=None To Save
TTITLE5=Blues At Daybreak
TTITLE6=Just Once More
TTITLE7=The Doggone Blues
TTITLE8=The Blues Took Over
TTITLE9=To Lose Is Blues
TTITLE10=It Wasn't Easy
TTITLE11=Backfire, Backfire
TTITLE12=A Trade Was Made
TTITLE13=Working To Buy The Blues
TTITLE14=Too Much Blues
TTITLE15=When Love Increased
EXTD=
EXTT0=
EXTT1=
EXTT2=
EXTT3=
EXTT4=
EXTT5=
EXTT6=
EXTT7=
EXTT8=
EXTT9=
EXTT10=
EXTT11=
EXTT12=
EXTT13=
EXTT14=
EXTT15=
PLAYORDER=
